<?xml version="1.0" encoding="UTF-8" standalone="no"?>
<!-- Created with Inkscape (http://www.inkscape.org/) -->

<svg
   xmlns:dc="http://purl.org/dc/elements/1.1/"
   xmlns:cc="http://creativecommons.org/ns#"
   xmlns:rdf="http://www.w3.org/1999/02/22-rdf-syntax-ns#"
   xmlns:svg="http://www.w3.org/2000/svg"
   xmlns="http://www.w3.org/2000/svg"
   xmlns:sodipodi="http://sodipodi.sourceforge.net/DTD/sodipodi-0.dtd"
   xmlns:inkscape="http://www.inkscape.org/namespaces/inkscape"
   width="467.10312"
   height="130.68663"
   id="svg6854"
   version="1.1"
   inkscape:version="0.48.4 r9939"
   sodipodi:docname="New document 5">
  <defs
     id="defs6856">
    <linearGradient
       x1="0"
       y1="0"
       x2="1"
       y2="0"
       gradientUnits="userSpaceOnUse"
       gradientTransform="matrix(7.128418,0,0,-7.128418,660.0791,54.151855)"
       spreadMethod="pad"
       id="linearGradient3780">
      <stop
         style="stop-opacity:1;stop-color:#fab400"
         offset="0"
         id="stop3782" />
      <stop
         style="stop-opacity:1;stop-color:#ffe900"
         offset="1"
         id="stop3784" />
    </linearGradient>
    <linearGradient
       x1="0"
       y1="0"
       x2="1"
       y2="0"
       gradientUnits="userSpaceOnUse"
       gradientTransform="matrix(7.137207,0,0,-7.137207,647.24561,61.464844)"
       spreadMethod="pad"
       id="linearGradient3760">
      <stop
         style="stop-opacity:1;stop-color:#fab400"
         offset="0"
         id="stop3762" />
      <stop
         style="stop-opacity:1;stop-color:#ffe900"
         offset="1"
         id="stop3764" />
    </linearGradient>
    <linearGradient
       x1="0"
       y1="0"
       x2="1"
       y2="0"
       gradientUnits="userSpaceOnUse"
       gradientTransform="matrix(7.8886719,0,0,-7.8886719,636.7876,94.710449)"
       spreadMethod="pad"
       id="linearGradient3740">
      <stop
         style="stop-opacity:1;stop-color:#fab400"
         offset="0"
         id="stop3742" />
      <stop
         style="stop-opacity:1;stop-color:#ffe900"
         offset="1"
         id="stop3744" />
    </linearGradient>
    <linearGradient
       x1="0"
       y1="0"
       x2="1"
       y2="0"
       gradientUnits="userSpaceOnUse"
       gradientTransform="matrix(7.8774414,0,0,-7.8774414,638.77246,75.281738)"
       spreadMethod="pad"
       id="linearGradient3720">
      <stop
         style="stop-opacity:1;stop-color:#fab400"
         offset="0"
         id="stop3722" />
      <stop
         style="stop-opacity:1;stop-color:#ffe900"
         offset="1"
         id="stop3724" />
    </linearGradient>
    <linearGradient
       x1="0"
       y1="0"
       x2="1"
       y2="0"
       gradientUnits="userSpaceOnUse"
       gradientTransform="matrix(15.460449,0,0,-15.460449,678.22803,134.97705)"
       spreadMethod="pad"
       id="linearGradient3700">
      <stop
         style="stop-opacity:1;stop-color:#fab400"
         offset="0"
         id="stop3702" />
      <stop
         style="stop-opacity:1;stop-color:#ffe900"
         offset="1"
         id="stop3704" />
    </linearGradient>
    <linearGradient
       x1="0"
       y1="0"
       x2="1"
       y2="0"
       gradientUnits="userSpaceOnUse"
       gradientTransform="matrix(11.069336,0,0,-11.069336,657.49854,129.87061)"
       spreadMethod="pad"
       id="linearGradient3680">
      <stop
         style="stop-opacity:1;stop-color:#fab400"
         offset="0"
         id="stop3682" />
      <stop
         style="stop-opacity:1;stop-color:#ffe900"
         offset="1"
         id="stop3684" />
    </linearGradient>
    <linearGradient
       x1="0"
       y1="0"
       x2="1"
       y2="0"
       gradientUnits="userSpaceOnUse"
       gradientTransform="matrix(10.047363,0,0,-10.047363,643.44678,113.69385)"
       spreadMethod="pad"
       id="linearGradient3660">
      <stop
         style="stop-opacity:1;stop-color:#fab400"
         offset="0"
         id="stop3662" />
      <stop
         style="stop-opacity:1;stop-color:#ffe900"
         offset="1"
         id="stop3664" />
    </linearGradient>
    <clipPath
       clipPathUnits="userSpaceOnUse"
       id="clipPath3596">
      <path
         inkscape:connector-curvature="0"
         d="m 0,841.89 1190.55,0 L 1190.55,0 0,0 0,841.89 z"
         id="path3598" />
    </clipPath>
    <linearGradient
       x1="0"
       y1="0"
       x2="1"
       y2="0"
       gradientUnits="userSpaceOnUse"
       gradientTransform="matrix(111.78027,0,0,-111.78027,654.58301,81.902832)"
       spreadMethod="pad"
       id="linearGradient3584">
      <stop
         style="stop-opacity:1;stop-color:#fab608"
         offset="0"
         id="stop3586" />
      <stop
         style="stop-opacity:1;stop-color:#ffffff"
         offset="1"
         id="stop3588" />
    </linearGradient>
    <linearGradient
       x1="0"
       y1="0"
       x2="1"
       y2="0"
       gradientUnits="userSpaceOnUse"
       gradientTransform="matrix(111.78027,0,0,-111.78027,654.58301,81.902832)"
       spreadMethod="pad"
       id="linearGradient3564">
      <stop
         style="stop-opacity:1;stop-color:#ffffff"
         offset="0"
         id="stop3566" />
      <stop
         style="stop-opacity:1;stop-color:#feeb15"
         offset="1"
         id="stop3568" />
    </linearGradient>
    <clipPath
       clipPathUnits="userSpaceOnUse"
       id="clipPath3532">
      <path
         inkscape:connector-curvature="0"
         d="m 0,841.89 1190.55,0 L 1190.55,0 0,0 0,841.89 z"
         id="path3534" />
    </clipPath>
    <linearGradient
       x1="0"
       y1="0"
       x2="1"
       y2="0"
       gradientUnits="userSpaceOnUse"
       gradientTransform="matrix(18.460449,0,0,-18.460449,762.96924,123.81982)"
       spreadMethod="pad"
       id="linearGradient3520">
      <stop
         style="stop-opacity:1;stop-color:#fab400"
         offset="0"
         id="stop3522" />
      <stop
         style="stop-opacity:1;stop-color:#ffe900"
         offset="1"
         id="stop3524" />
    </linearGradient>
    <clipPath
       clipPathUnits="userSpaceOnUse"
       id="clipPath3440">
      <path
         inkscape:connector-curvature="0"
         d="m 0,841.89 1190.55,0 L 1190.55,0 0,0 0,841.89 z"
         id="path3442" />
    </clipPath>
  </defs>
  <sodipodi:namedview
     id="base"
     pagecolor="#ffffff"
     bordercolor="#666666"
     borderopacity="1.0"
     inkscape:pageopacity="0.0"
     inkscape:pageshadow="2"
     inkscape:zoom="4"
     inkscape:cx="274.06145"
     inkscape:cy="66.129673"
     inkscape:document-units="px"
     inkscape:current-layer="layer1"
     showgrid="false"
     fit-margin-top="0.1"
     fit-margin-left="0.1"
     fit-margin-bottom="0.1"
     fit-margin-right="0.1"
     inkscape:window-width="1920"
     inkscape:window-height="1153"
     inkscape:window-x="-2"
     inkscape:window-y="-3"
     inkscape:window-maximized="1" />
  <metadata
     id="metadata6859">
    <rdf:RDF>
      <cc:Work
         rdf:about="">
        <dc:format>image/svg+xml</dc:format>
        <dc:type
           rdf:resource="http://purl.org/dc/dcmitype/StillImage" />
        <dc:title></dc:title>
      </cc:Work>
    </rdf:RDF>
  </metadata>
  <g
     inkscape:label="Layer 1"
     inkscape:groupmode="layer"
     id="layer1"
     transform="translate(-120.73416,-418.44744)">
    <g
       transform="matrix(1.25,0,0,-1.25,-675.15084,596.57244)"
       id="g3436">
      <g
         id="g3438"
         clip-path="url(#clipPath3440)">
        <g
           id="g3444"
           transform="translate(886.2163,78.3662)">
          <path
             inkscape:connector-curvature="0"
             d="M 0,0 C 0.023,-0.056 0.06,-0.102 0.133,-0.125 0.109,-0.037 0.06,-0.006 0,0"
             style="fill:#7ab0e0;fill-opacity:1;fill-rule:nonzero;stroke:none"
             id="path3446" />
        </g>
        <g
           id="g3448"
           transform="translate(896.7764,99.8755)">
          <path
             inkscape:connector-curvature="0"
             d="m 0,0 c -2.846,0 -6.562,-2.142 -9.775,-6.71 l -3.496,-16.41 c 1.149,-1.144 3.574,-1.853 5.922,-1.853 3.22,0 5.718,1.778 7.138,3.85 2.712,4.002 4.352,11.13 4.352,15.695 C 4.141,-1.646 2.924,0 0,0 m 5.787,-25.113 c -3.354,-3.718 -8.066,-5.854 -12.706,-5.854 -3.213,0 -5.989,0.496 -7.845,1.567 0,-0.357 -0.353,-2.139 -0.568,-3.139 l -2.356,-11.131 -7.994,-1.856 8.631,40.669 c 0.929,4.352 0.711,6.635 0,8.918 l 7.276,3.002 c 0.722,-1.435 1.147,-4.071 0.792,-6.566 3.138,3.781 7.846,6.133 12.126,6.133 6.139,0 9.486,-4.563 9.486,-11.77 0,-6.423 -2.776,-15.415 -6.842,-19.973"
             style="fill:#7ab0e0;fill-opacity:1;fill-rule:nonzero;stroke:none"
             id="path3450" />
        </g>
        <g
           id="g3452"
           transform="translate(933.1089,100.4448)">
          <path
             inkscape:connector-curvature="0"
             d="m 0,0 c -3.211,0 -5.495,-0.717 -8.279,-3.996 -3.208,-3.858 -4.705,-10.841 -4.705,-15.911 0,-3.925 1.282,-5.422 3.92,-5.422 3.287,0 6.923,3.278 8.56,6.915 L 3.355,-0.717 C 2.637,-0.289 1.205,0 0,0 M 9.986,-4.782 7.062,-19.055 c -0.928,-4.348 -0.497,-6.208 1.282,-8.133 L 1.92,-31.966 c -1.92,1.573 -2.708,3.567 -2.708,5.917 -2.569,-3.492 -6.211,-5.559 -10.849,-5.559 -5.64,0 -9.408,3.778 -9.408,11.483 0,7.993 2.99,15.698 7.623,20.479 3.855,3.923 8.56,5.847 14.343,5.847 4.136,0 8.353,-0.849 11.209,-2.709 -0.648,-1.994 -1.645,-5.707 -2.144,-8.274"
             style="fill:#7ab0e0;fill-opacity:1;fill-rule:nonzero;stroke:none"
             id="path3454" />
        </g>
        <g
           id="g3456"
           transform="translate(975.6289,98.4404)">
          <path
             inkscape:connector-curvature="0"
             d="m 0,0 c -2.992,1.716 -5.783,2.5 -8.633,2.5 -3.779,0 -6.567,-1.428 -6.567,-4.421 0,-1.929 1.006,-3.143 3.855,-4.212 l 4.269,-1.639 c 4.436,-1.709 7.362,-4.281 7.362,-8.563 0,-7.416 -6.069,-13.488 -16.704,-13.488 -4.989,0 -9.625,1.434 -13.336,3.785 l 3.135,5.783 c 3.008,-2.074 7.212,-3.573 11.281,-3.573 3.923,0 6.921,2.211 6.921,5.21 0,2.283 -1.29,3.422 -4.569,4.71 l -4.138,1.567 c -4.283,1.646 -6.775,4.138 -6.775,8.636 0,6.277 5.207,12.27 15.761,12.27 4.284,0 8.424,-1.283 11.278,-3.069 L 0,0"
             style="fill:#7ab0e0;fill-opacity:1;fill-rule:nonzero;stroke:none"
             id="path3458" />
        </g>
        <g
           id="g3460"
           transform="translate(1007.1655,98.4404)">
          <path
             inkscape:connector-curvature="0"
             d="m 0,0 c -2.996,1.716 -5.769,2.5 -8.625,2.5 -3.78,0 -6.575,-1.428 -6.575,-4.421 0,-1.929 1.009,-3.143 3.865,-4.212 l 4.277,-1.639 c 4.423,-1.709 7.352,-4.281 7.352,-8.563 0,-7.416 -6.063,-13.488 -16.694,-13.488 -5.003,0 -9.639,1.434 -13.354,3.785 l 3.141,5.783 c 2.999,-2.074 7.21,-3.573 11.279,-3.573 3.924,0 6.918,2.211 6.918,5.21 0,2.283 -1.283,3.422 -4.567,4.71 l -4.132,1.567 c -4.288,1.646 -6.782,4.138 -6.782,8.636 0,6.277 5.207,12.27 15.769,12.27 4.283,0 8.422,-1.283 11.273,-3.069 L 0,0"
             style="fill:#7ab0e0;fill-opacity:1;fill-rule:nonzero;stroke:none"
             id="path3462" />
        </g>
        <g
           id="g3464"
           transform="translate(933.1089,100.4448)">
          <path
             inkscape:connector-curvature="0"
             d="m 0,0 c -3.211,0 -5.495,-0.717 -8.279,-3.996 -3.208,-3.858 -4.705,-10.841 -4.705,-15.911 0,-3.925 1.282,-5.422 3.92,-5.422 3.287,0 6.923,3.278 8.56,6.915 L 3.355,-0.717 C 2.637,-0.289 1.205,0 0,0 M 9.986,-4.782 7.062,-19.055 c -0.928,-4.348 -0.497,-6.208 1.282,-8.133 L 1.92,-31.966 c -1.92,1.573 -2.708,3.567 -2.708,5.917 -2.569,-3.492 -6.211,-5.559 -10.849,-5.559 -5.64,0 -9.408,3.778 -9.408,11.483 0,7.993 2.99,15.698 7.623,20.479 3.855,3.923 8.56,5.847 14.343,5.847 4.136,0 8.353,-0.849 11.209,-2.709 -0.648,-1.994 -1.645,-5.707 -2.144,-8.274"
             style="fill:#7ab0e0;fill-opacity:1;fill-rule:nonzero;stroke:none"
             id="path3466" />
        </g>
        <g
           id="g3468"
           transform="translate(975.6289,98.4404)">
          <path
             inkscape:connector-curvature="0"
             d="m 0,0 c -2.992,1.716 -5.783,2.5 -8.633,2.5 -3.779,0 -6.567,-1.428 -6.567,-4.421 0,-1.929 1.006,-3.143 3.855,-4.212 l 4.269,-1.639 c 4.436,-1.709 7.362,-4.281 7.362,-8.563 0,-7.416 -6.069,-13.488 -16.704,-13.488 -4.989,0 -9.625,1.434 -13.336,3.785 l 3.135,5.783 c 3.008,-2.074 7.212,-3.573 11.281,-3.573 3.923,0 6.921,2.211 6.921,5.21 0,2.283 -1.29,3.422 -4.569,4.71 l -4.138,1.567 c -4.283,1.646 -6.775,4.138 -6.775,8.636 0,6.277 5.207,12.27 15.761,12.27 4.284,0 8.424,-1.283 11.278,-3.069 L 0,0 z"
             style="fill:#7ab0e0;fill-opacity:1;fill-rule:nonzero;stroke:none"
             id="path3470" />
        </g>
        <g
           id="g3472"
           transform="translate(1007.1655,98.4404)">
          <path
             inkscape:connector-curvature="0"
             d="m 0,0 c -2.996,1.716 -5.769,2.5 -8.625,2.5 -3.78,0 -6.575,-1.428 -6.575,-4.421 0,-1.929 1.009,-3.143 3.865,-4.212 l 4.277,-1.639 c 4.423,-1.709 7.352,-4.281 7.352,-8.563 0,-7.416 -6.063,-13.488 -16.694,-13.488 -5.003,0 -9.639,1.434 -13.354,3.785 l 3.141,5.783 c 2.999,-2.074 7.21,-3.573 11.279,-3.573 3.924,0 6.918,2.211 6.918,5.21 0,2.283 -1.283,3.422 -4.567,4.71 l -4.132,1.567 c -4.288,1.646 -6.782,4.138 -6.782,8.636 0,6.277 5.207,12.27 15.769,12.27 4.283,0 8.422,-1.283 11.273,-3.069 L 0,0 z"
             style="fill:#7ab0e0;fill-opacity:1;fill-rule:nonzero;stroke:none"
             id="path3474" />
        </g>
        <g
           id="g3476"
           transform="translate(780.4897,88.2993)">
          <path
             inkscape:connector-curvature="0"
             d="m 0,0 c -0.358,2.999 -1.278,5.923 -3.568,8.067 -1.42,1.279 -3.709,2.567 -7.057,2.567 -5.85,0 -10.136,-4.14 -10.92,-10.634 L 0,0 m 4.78,-11.411 c -0.492,-1.213 -1.423,-3.139 -3.204,-5.138 -1.008,-1.075 -4.286,-4.709 -11.638,-4.709 -11.262,0 -16.192,8.634 -16.192,18.121 0,11.269 7.426,17.552 15.699,17.552 10.281,0 15.628,-8.989 15.335,-17.838 l -26.393,0 c -0.07,-1.783 0.068,-4.422 1.063,-7.067 2.713,-6.985 9.069,-6.985 10.488,-6.985 3.715,0 8.002,1.281 10.922,7.139 l 3.92,-1.075"
             style="fill:#7ab0e0;fill-opacity:1;fill-rule:nonzero;stroke:none"
             id="path3478" />
        </g>
        <g
           id="g3480"
           transform="translate(815.979,67.8955)">
          <path
             inkscape:connector-curvature="0"
             d="m 0,0 -4.208,0 0,6.132 C -4.499,5.42 -4.999,4.281 -5.92,3.068 c -2.637,-3.282 -6.356,-3.855 -9.069,-3.855 -6.562,0 -9.34,4.139 -10.195,6.283 -1.149,2.639 -1.219,6.136 -1.219,11.84 l 0,16.697 4.213,0 0,-17.624 c 0.072,-7.416 0.072,-13.341 7.706,-13.341 1.92,0 4.781,0.284 7.207,2.855 2.989,3.142 3.069,6.78 3.069,13.127 l 0,14.983 4.208,0 L 0,0"
             style="fill:#7ab0e0;fill-opacity:1;fill-rule:nonzero;stroke:none"
             id="path3482" />
        </g>
        <g
           id="g3484"
           transform="translate(826.9053,67.8955)">
          <path
             inkscape:connector-curvature="0"
             d="m 0,0 -4.131,0 0,34.033 4.131,0 0,-5.423 c 2.147,4.497 5.716,5.993 9.924,5.993 0.999,0 1.497,-0.068 2.352,-0.212 l 0,-3.779 C 10.993,30.825 10.849,30.825 9.715,30.825 8.57,30.825 5.213,30.75 2.713,28.113 0.08,25.184 0.08,21.691 0,14.698 L 0,0"
             style="fill:#7ab0e0;fill-opacity:1;fill-rule:nonzero;stroke:none"
             id="path3486" />
        </g>
        <g
           id="g3488"
           transform="translate(854.3359,99.145)">
          <path
             inkscape:connector-curvature="0"
             d="m 0,0 c -3.005,0 -5.926,-1.211 -7.853,-3.491 -2.927,-3.43 -3.207,-8.494 -3.207,-11.28 0,-9.701 4.988,-13.621 10.846,-13.621 7.481,0 10.983,5.921 11.051,13.835 C 10.837,-12.628 10.978,0 0,0 m -0.214,-32.104 c -9.921,0 -15.345,7.848 -15.345,17.408 0,8.846 4.499,18.265 15.484,18.265 10.779,0 15.341,-8.849 15.411,-17.619 0.063,-10.346 -5.92,-18.054 -15.55,-18.054"
             style="fill:#7ab0e0;fill-opacity:1;fill-rule:nonzero;stroke:none"
             id="path3490" />
        </g>
        <g
           id="g3492"
           transform="translate(780.8804,88.6172)">
          <path
             inkscape:connector-curvature="0"
             d="m 0,0 c -0.367,3.042 -1.302,6.01 -3.62,8.177 -1.446,1.306 -3.769,2.609 -7.168,2.609 -5.935,0 -10.281,-4.201 -11.078,-10.786 L 0,0 m 4.85,-11.584 c -0.501,-1.233 -1.445,-3.19 -3.255,-5.216 -1.021,-1.088 -4.347,-4.776 -11.806,-4.776 -11.429,0 -16.434,8.759 -16.434,18.388 0,11.44 7.532,17.811 15.935,17.811 10.426,0 15.858,-9.122 15.56,-18.099 l -26.786,0 c -0.067,-1.81 0.07,-4.492 1.079,-7.17 2.76,-7.096 9.2,-7.096 10.646,-7.096 3.77,0 8.119,1.305 11.079,7.245 l 3.982,-1.087 z"
             style="fill:#7ab0e0;fill-opacity:1;fill-rule:nonzero;stroke:none"
             id="path3494" />
        </g>
        <g
           id="g3496"
           transform="translate(816.8906,67.9043)">
          <path
             inkscape:connector-curvature="0"
             d="m 0,0 -4.269,0 0,6.231 C -4.563,5.503 -5.066,4.348 -6.008,3.116 c -2.679,-3.33 -6.448,-3.911 -9.202,-3.911 -6.659,0 -9.482,4.203 -10.349,6.375 -1.16,2.679 -1.23,6.226 -1.23,12.015 l 0,16.94 4.273,0 0,-17.875 c 0.069,-7.532 0.069,-13.544 7.822,-13.544 1.943,0 4.849,0.292 7.305,2.897 3.042,3.189 3.12,6.881 3.12,13.326 l 0,15.196 4.269,0 L 0,0 z"
             style="fill:#7ab0e0;fill-opacity:1;fill-rule:nonzero;stroke:none"
             id="path3498" />
        </g>
        <g
           id="g3500"
           transform="translate(827.9775,67.9043)">
          <path
             inkscape:connector-curvature="0"
             d="m 0,0 -4.189,0 0,34.535 4.189,0 0,-5.5 c 2.182,4.564 5.796,6.082 10.075,6.082 1.014,0 1.515,-0.07 2.384,-0.212 l 0,-3.836 C 11.158,31.284 11.011,31.284 9.857,31.284 8.698,31.284 5.292,31.21 2.76,28.527 0.081,25.561 0.081,22.013 0,14.921 L 0,0 z"
             style="fill:#7ab0e0;fill-opacity:1;fill-rule:nonzero;stroke:none"
             id="path3502" />
        </g>
        <g
           id="g3504"
           transform="translate(855.8149,99.6216)">
          <path
             inkscape:connector-curvature="0"
             d="m 0,0 c -3.047,0 -6.012,-1.232 -7.965,-3.548 -2.976,-3.478 -3.255,-8.617 -3.255,-11.438 0,-9.85 5.058,-13.83 11.003,-13.83 7.593,0 11.145,6.009 11.212,14.043 C 10.995,-12.815 11.146,0 0,0 m -0.217,-32.581 c -10.064,0 -15.576,7.966 -15.576,17.664 0,8.979 4.573,18.535 15.714,18.535 10.937,0 15.571,-8.979 15.636,-17.881 0.071,-10.496 -6.006,-18.318 -15.774,-18.318"
             style="fill:#7ab0e0;fill-opacity:1;fill-rule:nonzero;stroke:none"
             id="path3506" />
        </g>
      </g>
    </g>
    <g
       transform="matrix(1.25,0,0,-1.25,-675.15084,596.57244)"
       id="g3508">
      <g
         id="g3510">
        <g
           id="g3516">
          <g
             id="g3518">
            <path
               inkscape:connector-curvature="0"
               d="m 768.921,130.986 -5.951,-15.782 9.845,-2.079 8.615,21.39 -12.509,-3.529 z"
               style="fill:url(#linearGradient3520);stroke:none"
               id="path3526" />
          </g>
        </g>
      </g>
    </g>
    <g
       transform="matrix(1.25,0,0,-1.25,-675.15084,596.57244)"
       id="g3528">
      <g
         id="g3530"
         clip-path="url(#clipPath3532)">
        <g
           id="g3536"
           transform="translate(768.6274,130.9463)">
          <path
             inkscape:connector-curvature="0"
             d="M 0,0 -6.946,-15.977 4.188,-17.821 5.041,-15.882 -5.347,-15.35 2.479,0.853 0,0 z"
             style="fill:#ffffff;fill-opacity:1;fill-rule:nonzero;stroke:none"
             id="path3538" />
        </g>
        <g
           id="g3540"
           transform="translate(768.6274,130.9463)">
          <path
             inkscape:connector-curvature="0"
             d="M 0,0 -6.946,-15.977 4.188,-17.821 5.041,-15.882 -5.347,-15.35 2.479,0.853 0,0 z"
             style="fill:#164493;fill-opacity:1;fill-rule:nonzero;stroke:none"
             id="path3542" />
        </g>
        <g
           id="g3544"
           transform="translate(774.8687,119.3091)">
          <path
             inkscape:connector-curvature="0"
             d="M 0,0 C 0,0 0.035,0.08 0.087,0.224 0.809,2.163 6.044,16.104 6.688,16.755 7.389,17.451 2.382,4.627 1.915,3.737"
             style="fill:#ffffff;fill-opacity:1;fill-rule:nonzero;stroke:none"
             id="path3546" />
        </g>
        <g
           id="g3548"
           transform="translate(774.8687,119.3091)">
          <path
             inkscape:connector-curvature="0"
             d="M 0,0 C 0,0 0.035,0.08 0.087,0.224 0.809,2.163 6.044,16.104 6.688,16.755 7.389,17.451 2.382,4.627 1.915,3.737"
             style="fill:#164493;fill-opacity:1;fill-rule:nonzero;stroke:none"
             id="path3550" />
        </g>
      </g>
    </g>
    <g
       transform="matrix(1.25,0,0,-1.25,-675.15084,596.57244)"
       id="g3552">
      <g
         id="g3554">
        <g
           id="g3560">
          <g
             id="g3562">
            <path
               inkscape:connector-curvature="0"
               d="m 710.241,96.343 -33.185,16.712 4.491,-11.738 21.658,-18.765 -14.845,-11.889 -33.777,2.965 33.006,-11.831 43.058,1.476 35.716,-21.237 -13.094,20.48 -26.998,20.766 17.368,9.208 12.46,19.761 -29.562,-15.498 -6.58,15.912 -16.376,9.104 6.66,-25.426 z"
               style="fill:url(#linearGradient3564);stroke:none"
               id="path3570" />
          </g>
        </g>
      </g>
    </g>
    <g
       transform="matrix(1.25,0,0,-1.25,-675.15084,596.57244)"
       id="g3572">
      <g
         id="g3574">
        <g
           id="g3580">
          <g
             id="g3582">
            <path
               inkscape:connector-curvature="0"
               d="m 710.241,96.343 -33.185,16.712 4.491,-11.738 21.658,-18.765 -14.845,-11.889 -33.777,2.965 33.006,-11.831 43.058,1.476 35.716,-21.237 -13.094,20.48 -26.998,20.766 17.368,9.208 12.46,19.761 -29.562,-15.498 -6.58,15.912 -16.376,9.104 6.66,-25.426 z"
               style="fill:url(#linearGradient3584);stroke:none"
               id="path3590" />
          </g>
        </g>
      </g>
    </g>
    <g
       transform="matrix(1.25,0,0,-1.25,-675.15084,596.57244)"
       id="g3592">
      <g
         id="g3594"
         clip-path="url(#clipPath3596)">
        <g
           id="g3600"
           transform="translate(714.6187,96.7627)">
          <path
             inkscape:connector-curvature="0"
             d="m 0,0 c -17.925,0.139 -41.185,21.708 -41.185,21.708 -2.485,-19.477 25.193,-35.482 25.193,-35.482 -6.933,-12.825 -47.415,-8.673 -47.415,-8.673 25.677,-19.929 64.291,-10.577 64.291,-10.577 21.24,-3.385 52.168,-25.708 52.168,-25.708 5.524,17.848 -42.306,44.714 -42.306,44.714 26.863,8.972 37.358,32.919 37.358,32.919 0,0 -23.763,-15.276 -35.517,-16.419 0,0 0.949,19.721 -26.574,22.316 0,0 27.395,-4.697 24.221,-25.752 0,0 16.864,2.446 34.694,16.741 0,0 -11.675,-18.992 -39.023,-29.587 0,0 42.698,-23.969 46.026,-42.398 0,0 -30.025,23.847 -51.057,25.916 0,0 -36.674,-8.918 -59.866,6.366 0,0 37.214,-6.844 47.039,10.36 0,0 -28.474,14.838 -28.399,32.946 0,0 25.645,-24.071 40.314,-22.107 L 0,0"
             style="fill:#ffffff;fill-opacity:1;fill-rule:nonzero;stroke:none"
             id="path3602" />
        </g>
        <g
           id="g3604"
           transform="translate(714.6187,96.7627)">
          <path
             inkscape:connector-curvature="0"
             d="m 0,0 c -17.925,0.139 -41.185,21.708 -41.185,21.708 -2.485,-19.477 25.193,-35.482 25.193,-35.482 -6.933,-12.825 -47.415,-8.673 -47.415,-8.673 25.677,-19.929 64.291,-10.577 64.291,-10.577 21.24,-3.385 52.168,-25.708 52.168,-25.708 5.524,17.848 -42.306,44.714 -42.306,44.714 26.863,8.972 37.358,32.919 37.358,32.919 0,0 -23.763,-15.276 -35.517,-16.419 0,0 0.949,19.721 -26.574,22.316 0,0 27.395,-4.697 24.221,-25.752 0,0 16.864,2.446 34.694,16.741 0,0 -11.675,-18.992 -39.023,-29.587 0,0 42.698,-23.969 46.026,-42.398 0,0 -30.025,23.847 -51.057,25.916 0,0 -36.674,-8.918 -59.866,6.366 0,0 37.214,-6.844 47.039,10.36 0,0 -28.474,14.838 -28.399,32.946 0,0 25.645,-24.071 40.314,-22.107 L 0,0 z"
             style="fill:#164493;fill-opacity:1;fill-rule:nonzero;stroke:none"
             id="path3606" />
        </g>
        <g
           id="g3608"
           transform="translate(698.7344,117.394)">
          <path
             inkscape:connector-curvature="0"
             d="m 0,0 c 0,0 3.785,-1.762 4.729,-1.934 0.944,-0.172 3.018,0.502 4.871,0.167 1.849,-0.339 4.548,-1.806 4.23,-3.197 l -1.205,0.151 c 0,0 -1.289,1.664 -3.207,2.063 C 7.5,-2.353 6.25,-3.33 4.617,-2.976 2.05,-2.432 0,0 0,0"
             style="fill:#ffffff;fill-opacity:1;fill-rule:nonzero;stroke:none"
             id="path3610" />
        </g>
        <g
           id="g3612"
           transform="translate(698.7344,117.394)">
          <path
             inkscape:connector-curvature="0"
             d="m 0,0 c 0,0 3.785,-1.762 4.729,-1.934 0.944,-0.172 3.018,0.502 4.871,0.167 1.849,-0.339 4.548,-1.806 4.23,-3.197 l -1.205,0.151 c 0,0 -1.289,1.664 -3.207,2.063 C 7.5,-2.353 6.25,-3.33 4.617,-2.976 2.05,-2.432 0,0 0,0"
             style="fill:#164493;fill-opacity:1;fill-rule:nonzero;stroke:none"
             id="path3614" />
        </g>
        <g
           id="g3616"
           transform="translate(710.3872,110.2051)">
          <path
             inkscape:connector-curvature="0"
             d="m 0,0 1.464,-0.342 c 0,0 -0.243,2.281 -3.394,2.956 -2.195,0.471 -3.238,-0.159 -4.12,-0.47 -0.879,-0.307 -1.999,-1.253 -5.514,1.134 0,0 1.739,-2.771 5.082,-2.446 2.101,0.205 1.581,1.097 4.33,0.591 C 0.057,1.023 0,0 0,0"
             style="fill:#ffffff;fill-opacity:1;fill-rule:nonzero;stroke:none"
             id="path3618" />
        </g>
        <g
           id="g3620"
           transform="translate(710.3872,110.2051)">
          <path
             inkscape:connector-curvature="0"
             d="m 0,0 1.464,-0.342 c 0,0 -0.243,2.281 -3.394,2.956 -2.195,0.471 -3.238,-0.159 -4.12,-0.47 -0.879,-0.307 -1.999,-1.253 -5.514,1.134 0,0 1.739,-2.771 5.082,-2.446 2.101,0.205 1.581,1.097 4.33,0.591 C 0.057,1.023 0,0 0,0"
             style="fill:#164493;fill-opacity:1;fill-rule:nonzero;stroke:none"
             id="path3622" />
        </g>
        <g
           id="g3624"
           transform="translate(698.5669,109.835)">
          <path
             inkscape:connector-curvature="0"
             d="m 0,0 c 0,0 2.715,-2.129 4.72,-1.667 2.005,0.457 4.255,1.577 6.305,-0.462 0,0 -2.413,1.113 -3.915,0.041 C 5.78,-3.043 3.794,-3.159 2.065,-2.11 0.344,-1.057 0,0 0,0"
             style="fill:#ffffff;fill-opacity:1;fill-rule:nonzero;stroke:none"
             id="path3626" />
        </g>
        <g
           id="g3628"
           transform="translate(698.5669,109.835)">
          <path
             inkscape:connector-curvature="0"
             d="m 0,0 c 0,0 2.715,-2.129 4.72,-1.667 2.005,0.457 4.255,1.577 6.305,-0.462 0,0 -2.413,1.113 -3.915,0.041 C 5.78,-3.043 3.794,-3.159 2.065,-2.11 0.344,-1.057 0,0 0,0"
             style="fill:#164493;fill-opacity:1;fill-rule:nonzero;stroke:none"
             id="path3630" />
        </g>
        <g
           id="g3632"
           transform="translate(720.3525,107.9834)">
          <path
             inkscape:connector-curvature="0"
             d="m 0,0 c -0.126,-0.536 -0.651,-0.868 -1.18,-0.746 -0.536,0.117 -0.876,0.652 -0.75,1.18 0.118,0.537 0.651,0.871 1.19,0.747 C -0.214,1.057 0.121,0.529 0,0"
             style="fill:#ffffff;fill-opacity:1;fill-rule:nonzero;stroke:none"
             id="path3634" />
        </g>
        <g
           id="g3636"
           transform="translate(720.3525,107.9834)">
          <path
             inkscape:connector-curvature="0"
             d="m 0,0 c -0.126,-0.536 -0.651,-0.868 -1.18,-0.746 -0.536,0.117 -0.876,0.652 -0.75,1.18 0.118,0.537 0.651,0.871 1.19,0.747 C -0.214,1.057 0.121,0.529 0,0"
             style="fill:#0e4689;fill-opacity:1;fill-rule:nonzero;stroke:none"
             id="path3638" />
        </g>
        <g
           id="g3640"
           transform="translate(725.2397,103.2671)">
          <path
             inkscape:connector-curvature="0"
             d="m 0,0 c -0.637,-0.391 -1.502,-0.974 -2.446,-0.98 -1.686,-0.022 -3.107,0.148 -3.548,1.171 l 0,-0.065 c 0.011,-1.337 1.667,-2.404 3.696,-2.378 0.886,0.003 1.698,0.227 2.326,0.579 L 0,0"
             style="fill:#ffffff;fill-opacity:1;fill-rule:nonzero;stroke:none"
             id="path3642" />
        </g>
        <g
           id="g3644"
           transform="translate(725.2397,103.2671)">
          <path
             inkscape:connector-curvature="0"
             d="m 0,0 c -0.637,-0.391 -1.502,-0.974 -2.446,-0.98 -1.686,-0.022 -3.107,0.148 -3.548,1.171 l 0,-0.065 c 0.011,-1.337 1.667,-2.404 3.696,-2.378 0.886,0.003 1.698,0.227 2.326,0.579 L 0,0 z"
             style="fill:#0e4689;fill-opacity:1;fill-rule:nonzero;stroke:none"
             id="path3646" />
        </g>
      </g>
    </g>
    <g
       transform="matrix(1.25,0,0,-1.25,-675.15084,596.57244)"
       id="g3648">
      <g
         id="g3650">
        <g
           id="g3656">
          <g
             id="g3658">
            <path
               inkscape:connector-curvature="0"
               d="m 647.31,114.911 -3.863,0 3.148,-2.341 -1.219,-3.713 3.102,2.287 3.1,-2.287 -1.198,3.713 3.115,2.341 -3.869,0 -1.148,3.62 -1.168,-3.62 z"
               style="fill:url(#linearGradient3660);stroke:none"
               id="path3666" />
          </g>
        </g>
      </g>
    </g>
    <g
       transform="matrix(1.25,0,0,-1.25,-675.15084,596.57244)"
       id="g3668">
      <g
         id="g3670">
        <g
           id="g3676">
          <g
             id="g3678">
            <path
               inkscape:connector-curvature="0"
               d="m 661.748,131.208 -4.249,0 3.464,-2.576 -1.354,-4.089 3.427,2.518 3.424,-2.518 -1.338,4.089 3.446,2.576 -4.266,0 -1.266,3.991 -1.288,-3.991 z"
               style="fill:url(#linearGradient3680);stroke:none"
               id="path3686" />
          </g>
        </g>
      </g>
    </g>
    <g
       transform="matrix(1.25,0,0,-1.25,-675.15084,596.57244)"
       id="g3688">
      <g
         id="g3690">
        <g
           id="g3696">
          <g
             id="g3698">
            <path
               inkscape:connector-curvature="0"
               d="m 684.167,136.85 -5.939,0 4.84,-3.604 -1.882,-5.712 4.78,3.52 4.783,-3.52 -1.863,5.712 4.802,3.604 -5.958,0 -1.764,5.57 -1.799,-5.57 z"
               style="fill:url(#linearGradient3700);stroke:none"
               id="path3706" />
          </g>
        </g>
      </g>
    </g>
    <g
       transform="matrix(1.25,0,0,-1.25,-675.15084,596.57244)"
       id="g3708">
      <g
         id="g3710">
        <g
           id="g3716">
          <g
             id="g3718">
            <path
               inkscape:connector-curvature="0"
               d="m 641.804,76.234 -3.032,0 2.465,-1.834 -0.955,-2.91 2.434,1.794 2.442,-1.794 -0.949,2.91 2.441,1.834 -3.037,0 -0.897,2.84 -0.912,-2.84 z"
               style="fill:url(#linearGradient3720);stroke:none"
               id="path3726" />
          </g>
        </g>
      </g>
    </g>
    <g
       transform="matrix(1.25,0,0,-1.25,-675.15084,596.57244)"
       id="g3728">
      <g
         id="g3730">
        <g
           id="g3736">
          <g
             id="g3738">
            <path
               inkscape:connector-curvature="0"
               d="m 639.819,95.663 -3.031,0 2.473,-1.839 -0.965,-2.909 2.445,1.797 2.435,-1.797 -0.955,2.909 2.455,1.839 -3.048,0 -0.887,2.843 -0.922,-2.843 z"
               style="fill:url(#linearGradient3740);stroke:none"
               id="path3746" />
          </g>
        </g>
      </g>
    </g>
    <g
       transform="matrix(1.25,0,0,-1.25,-675.15084,596.57244)"
       id="g3748">
      <g
         id="g3750">
        <g
           id="g3756">
          <g
             id="g3758">
            <path
               inkscape:connector-curvature="0"
               d="m 649.984,62.517 -2.738,0.268 2.079,-1.878 -1.132,-2.554 2.367,1.414 2.044,-1.839 -0.597,2.718 2.376,1.446 -2.752,0.265 -0.566,2.646 -1.081,-2.486 z"
               style="fill:url(#linearGradient3760);stroke:none"
               id="path3766" />
          </g>
        </g>
      </g>
    </g>
    <g
       transform="matrix(1.25,0,0,-1.25,-675.15084,596.57244)"
       id="g3768">
      <g
         id="g3770">
        <g
           id="g3776">
          <g
             id="g3778">
            <path
               inkscape:connector-curvature="0"
               d="m 662.813,55.203 -2.734,0.265 2.074,-1.878 -1.126,-2.55 2.36,1.407 2.049,-1.836 -0.602,2.716 2.374,1.451 -2.749,0.269 -0.562,2.646 -1.084,-2.49 z"
               style="fill:url(#linearGradient3780);stroke:none"
               id="path3786" />
          </g>
        </g>
      </g>
    </g>
  </g>
</svg>
